<svg xmlns="http://www.w3.org/2000/svg" viewBox="0 0 379.45 99.82"><defs><style>.cls-1{fill:#0a1d2b;}.cls-2{fill:#fff;}.cls-3{fill:#dec42e;}.cls-4{fill:#091e2b;}.cls-5{fill:#e37f3b;}</style></defs><g id="Capa_2" data-name="Capa 2"><g id="Capa_2-2" data-name="Capa 2"><ellipse class="cls-1" cx="53.31" cy="49.91" rx="50.44" ry="49.91"/><path class="cls-2" d="M103.12,38.55a45.86,45.86,0,0,1-4.77,2.27l.07.29a16,16,0,0,1-.37,9c-.13,24.31-20.12,44-44.74,44S8.88,74.63,8.57,50.48a15.94,15.94,0,0,1-.51-9.37l.07-.29a46.86,46.86,0,0,1-4.77-2.27,6.57,6.57,0,0,1,.49-11.71,5.37,5.37,0,0,1,5.53.66,41.58,41.58,0,0,0,3.88,2.68,44.94,44.94,0,0,1,80.06-.06,43.23,43.23,0,0,0,3.79-2.62,5.36,5.36,0,0,1,5.52-.66,6.56,6.56,0,0,1,3.85,5.74A6.49,6.49,0,0,1,103.12,38.55Z"/><path class="cls-3" d="M33.44,34.84,34,37.33a43,43,0,0,1-17.08-6.74,3.64,3.64,0,0,1,2-2.34A58,58,0,0,0,33.44,34.84Z"/><path class="cls-3" d="M31.87,29.94,20.63,25.29A3.46,3.46,0,0,1,21.89,23l10.26,5.42Z"/><path class="cls-3" d="M32.27,23.82l-7.24-3a8.68,8.68,0,0,1,1.84-2.69l5.4,4.09Z"/><path class="cls-4" d="M38.88,48.94c-11.05-1.61-21-3.71-28.07-7.12,0,0-2.57,10,5.69,11.73S37,54.38,37,54.38Z"/><path class="cls-4" d="M36.12,57.22H18.91a10.87,10.87,0,0,1-3.72-.65l-4-1.94c-.14,3.83.7,7.18,3.07,9.2a5.8,5.8,0,0,0,3.8,1.37h14.3Z"/><path class="cls-4" d="M30.32,68.14h-10a9.45,9.45,0,0,1-3.74-.77l-2.15-.94a33.71,33.71,0,0,0,3.11,5.71,6,6,0,0,0,5.16,2.5l6.54-.32Z"/><path class="cls-4" d="M21,77.2h8.44l1.67,7.54A48.07,48.07,0,0,1,21,77.2Z"/><path class="cls-4" d="M40.75,43.7l-1.13,1.76S17,42.85,4.74,36.06A3.72,3.72,0,0,1,5,29.43H5a2.53,2.53,0,0,1,2.59.31C10.86,32.28,21.13,39.27,40.75,43.7Z"/><path class="cls-4" d="M67.61,48.94c11-1.61,21-3.71,28.06-7.12,0,0,2.58,10-5.69,11.73s-20.51.83-20.51.83Z"/><path class="cls-4" d="M70.36,57.22H87.57a10.87,10.87,0,0,0,3.72-.65l4-1.94c.14,3.83-.7,7.18-3.07,9.2a5.78,5.78,0,0,1-3.8,1.37H74.09Z"/><path class="cls-4" d="M76.17,68.14h10a9.41,9.41,0,0,0,3.74-.77l2.15-.94A33.71,33.71,0,0,1,89,72.14a6,6,0,0,1-5.16,2.5l-6.54-.32Z"/><path class="cls-4" d="M85.44,77.2H77l-1.68,7.54A48.07,48.07,0,0,0,85.44,77.2Z"/><path class="cls-4" d="M65.73,43.7l1.13,1.76s22.62-2.61,34.88-9.4a3.72,3.72,0,0,0-.29-6.63h0a2.53,2.53,0,0,0-2.59.31C95.62,32.28,85.35,39.27,65.73,43.7Z"/><path class="cls-3" d="M78.09,13.09a29.54,29.54,0,0,1-25,13.39A29.52,29.52,0,0,1,28.23,13.29a45.24,45.24,0,0,1,49.86-.2Z"/><path class="cls-2" d="M70.74,59.18a14,14,0,0,0-3.13-10.74,15.25,15.25,0,0,0-4.23-3.94,20.72,20.72,0,1,0-20.44-.18,15.08,15.08,0,0,0-4.86,4.31c-2.51,3.46-3.12,5.67-2.51,9.92C31.4,64.29,27.45,72.71,29.13,79c2.53,9.51,11.13,15.19,23,15.19a36.49,36.49,0,0,0,14.34-2.91c4.73-2.08,8-4.93,9.45-8.26C80.47,72.67,73.36,62.44,70.74,59.18Z"/><path class="cls-4" d="M67.75,60.06c.86-5.3-.83-7.73-2.44-9.94a12.8,12.8,0,0,0-5.69-4.34V43.12a17.86,17.86,0,1,0-12.13.18v2.19a13.12,13.12,0,0,0-7.11,4.81c-2.18,3-2.62,4.46-1.8,9-4.46,5.77-8.07,13.83-6.7,19C37,97.58,68.64,92.6,73.33,81.88S67.75,60.06,67.75,60.06Z"/><path class="cls-5" d="M61.35,61.37c2-6.38-.05-10.54-4.29-12v-23h.84V27h2a1.15,1.15,0,0,0,0-2.29h-2v.69h-.84V22.5h.84v.6h2a1.15,1.15,0,0,0,0-2.29h-2v.68h-.84V18.93h.88v.6h2a1.15,1.15,0,1,0,0-2.29h-2v.68h-.88v-.05A1.56,1.56,0,0,0,55.5,16.3H51.09a1.56,1.56,0,0,0-1.56,1.57v.05h-.9v-.68h-2a1.15,1.15,0,0,0,0,2.29h2v-.6h.9v2.56h-.87v-.68H46.71a1.15,1.15,0,0,0,0,2.29h1.95v-.6h.87v2.87h-.87v-.69H46.71a1.15,1.15,0,0,0,0,2.29h1.95v-.6h.87v23c-4.63,1.18-7.23,4.73-5.07,12-9.23,11.85-4.71,22.56,8.85,23.22C66,85.21,72.3,71.72,61.35,61.37Z"/><path class="cls-4" d="M54.53,64.5V22.05a1.24,1.24,0,0,0-2.48,0V64.5a4.4,4.4,0,1,0,2.48,0Z"/><path class="cls-3" d="M73.41,34.84l-.56,2.49a43.06,43.06,0,0,0,17.09-6.74,3.67,3.67,0,0,0-2-2.34A58,58,0,0,1,73.41,34.84Z"/><path class="cls-3" d="M75,29.94l11.25-4.65A3.52,3.52,0,0,0,85,23L74.7,28.45Z"/><path class="cls-3" d="M74.59,23.82c.09-.05,7.24-3,7.24-3A8.85,8.85,0,0,0,80,18.12l-5.4,4.09Z"/><path class="cls-4" d="M144.83,4.89a3.69,3.69,0,0,0,1.41-.28,7.24,7.24,0,0,0,1.65-1.13l.33,11.2h-.1a21.45,21.45,0,0,0-4.66-7.58,8.31,8.31,0,0,0-5.89-2.59c-2.76,0-5,1.34-6.64,4a19.28,19.28,0,0,0-2.49,10.32q0,6.32,3.11,10.17a9.82,9.82,0,0,0,8,3.86,10.43,10.43,0,0,0,5.61-1.41,10.09,10.09,0,0,0,3.67-4.38l.28.09a12.89,12.89,0,0,1-4.9,7.54,15,15,0,0,1-9.09,2.68,15.69,15.69,0,0,1-11.65-4.59,16.17,16.17,0,0,1-4.55-11.89A16.67,16.67,0,0,1,124,8.42a17.48,17.48,0,0,1,12.65-4.94,20.44,20.44,0,0,1,2.71.18,25.91,25.91,0,0,1,3.32.76,12,12,0,0,0,1.39.4A5,5,0,0,0,144.83,4.89Z"/><path class="cls-4" d="M176.43,35.26a3.6,3.6,0,0,0,.56,0,2.63,2.63,0,0,0,.52-.14v.09a6.16,6.16,0,0,1-2.45,1.58,9.13,9.13,0,0,1-3.25.59,7.42,7.42,0,0,1-4.26-1.09,4.47,4.47,0,0,1-1.91-3.11c0-.06,0-.25,0-.58a6,6,0,0,1,0-.64,6.36,6.36,0,0,1-2.62,3.89,8.46,8.46,0,0,1-5,1.43,7.64,7.64,0,0,1-5-1.58A5.25,5.25,0,0,1,151,31.35a5.64,5.64,0,0,1,.94-3.29,6.76,6.76,0,0,1,2.92-2.26,17.4,17.4,0,0,1,2.54-.87c1-.27,2.46-.59,4.47-1l3.58-.66V18.73a5.8,5.8,0,0,0-.92-3.48A3.06,3.06,0,0,0,161.87,14a3.16,3.16,0,0,0-2.44,1,3.71,3.71,0,0,0-.9,2.62,3.37,3.37,0,0,0,.59,2.14,2,2,0,0,0,1.67.73l.43,0a2.17,2.17,0,0,0,.47-.12,4.79,4.79,0,0,1-2,2.07,6.22,6.22,0,0,1-3,.71A4.71,4.71,0,0,1,153.44,22a3.63,3.63,0,0,1-1.27-2.85,4.92,4.92,0,0,1,2.73-4.33,13.87,13.87,0,0,1,7.21-1.65q6.07,0,8.9,2c1.88,1.34,2.83,3.42,2.83,6.24V23c0,.58,0,1.45-.05,2.61s0,2.28,0,3v2a8,8,0,0,0,.61,3.77A2.27,2.27,0,0,0,176.43,35.26Zm-11-6.12,0-5-2,.47a5.09,5.09,0,0,0-3.25,1.77,5.89,5.89,0,0,0-1,3.69A5.07,5.07,0,0,0,159.9,33a2.29,2.29,0,0,0,2,1,2.94,2.94,0,0,0,2.52-1.36A6,6,0,0,0,165.41,29.14Z"/><path class="cls-4" d="M177.27,13.69V13.6H188.2v6.12a9.16,9.16,0,0,1,3-4.85,7.93,7.93,0,0,1,5.16-1.74,7.05,7.05,0,0,1,5.51,2.19,8.56,8.56,0,0,1,2,6v10.5a9.44,9.44,0,0,0,.38,3.32,4.54,4.54,0,0,0,1.84,1.72v.09H193.19v-.09A4.61,4.61,0,0,0,195,35.1a9.51,9.51,0,0,0,.37-3.32V21a4.48,4.48,0,0,0-.84-2.85,2.88,2.88,0,0,0-2.36-1.06,3.33,3.33,0,0,0-2.94,1.63,8.34,8.34,0,0,0-1.06,4.59v8.43a9.2,9.2,0,0,0,.38,3.32,4.57,4.57,0,0,0,1.83,1.72v.09H177.56v-.09a4.57,4.57,0,0,0,1.83-1.72,9.44,9.44,0,0,0,.38-3.32v-13a8.74,8.74,0,0,0-.42-3.32A5.08,5.08,0,0,0,177.27,13.69Z"/><path class="cls-4" d="M224.74,17.65a3.79,3.79,0,0,0-.94-2.73,3.45,3.45,0,0,0-2.63-1c-1.54,0-2.74.87-3.58,2.61a16.4,16.4,0,0,0-1.28,7.09,12,12,0,0,0,1.94,7.28,6.24,6.24,0,0,0,5.32,2.61,7,7,0,0,0,3.86-1.08,7.78,7.78,0,0,0,2.73-3.11l.28.14a10,10,0,0,1-3.84,5.79,11.37,11.37,0,0,1-6.94,2.12A12.1,12.1,0,0,1,211,34.13a11.06,11.06,0,0,1-3.43-8.43,11.8,11.8,0,0,1,3.76-9.11,13.83,13.83,0,0,1,9.75-3.46,11.34,11.34,0,0,1,6.45,1.65A5.07,5.07,0,0,1,230,19.2a4,4,0,0,1-1.25,3.11,4.41,4.41,0,0,1-3.17,1.18,4.85,4.85,0,0,1-2.83-.78,2.7,2.7,0,0,1-1.27-1.95l.42.09a2.37,2.37,0,0,0,.43,0,2.13,2.13,0,0,0,1.81-.85A3.94,3.94,0,0,0,224.74,17.65Z"/><path class="cls-4" d="M231.48,13.6H242.4V31.78a9.44,9.44,0,0,0,.38,3.32,4.54,4.54,0,0,0,1.84,1.72v.09H231.76v-.09a4.61,4.61,0,0,0,1.84-1.72,9.51,9.51,0,0,0,.37-3.32v-13a8.74,8.74,0,0,0-.42-3.32,5,5,0,0,0-2.07-1.82Zm6.59-2.83a4.68,4.68,0,0,1-3.37-1.29,4.32,4.32,0,0,1-1.34-3.23,4.25,4.25,0,0,1,1.34-3.2,4.71,4.71,0,0,1,3.37-1.27,4.88,4.88,0,0,1,3.42,1.27,4.19,4.19,0,0,1,1.39,3.2,4.25,4.25,0,0,1-1.39,3.23A4.85,4.85,0,0,1,238.07,10.77Z"/><path class="cls-4" d="M272.12,25.23a11.36,11.36,0,0,1-3.7,8.74,14.25,14.25,0,0,1-18.5,0,11.36,11.36,0,0,1-3.7-8.74,11.31,11.31,0,0,1,3.7-8.69,14.25,14.25,0,0,1,18.5,0A11.31,11.31,0,0,1,272.12,25.23Zm-17,0a28.05,28.05,0,0,0,1,8.64c.64,1.81,1.66,2.71,3,2.71s2.39-.9,3-2.71a28.05,28.05,0,0,0,1-8.64,27.86,27.86,0,0,0-1-8.59c-.65-1.81-1.66-2.71-3-2.71s-2.4.9-3,2.71A27.86,27.86,0,0,0,255.17,25.23Z"/><path class="cls-4" d="M273.72,13.69V13.6h10.93v6.12a9.1,9.1,0,0,1,3-4.85,7.92,7.92,0,0,1,5.15-1.74,7,7,0,0,1,5.51,2.19,8.56,8.56,0,0,1,2,6v10.5a9.44,9.44,0,0,0,.38,3.32,4.54,4.54,0,0,0,1.84,1.72v.09H289.64v-.09a4.68,4.68,0,0,0,1.84-1.72,9.51,9.51,0,0,0,.37-3.32V21a4.48,4.48,0,0,0-.84-2.85,2.88,2.88,0,0,0-2.36-1.06,3.32,3.32,0,0,0-2.94,1.63,8.34,8.34,0,0,0-1.06,4.59v8.43A9.51,9.51,0,0,0,285,35.1a4.68,4.68,0,0,0,1.84,1.72v.09H274v-.09a4.54,4.54,0,0,0,1.84-1.72,9.44,9.44,0,0,0,.38-3.32v-13a8.48,8.48,0,0,0-.43-3.32A5,5,0,0,0,273.72,13.69Z"/><path class="cls-4" d="M304,25.28a11.62,11.62,0,0,1,3.54-8.74,12.18,12.18,0,0,1,8.8-3.41q5.24,0,8.2,3a11,11,0,0,1,3,8.1h-15a10.45,10.45,0,0,0,2.05,6.8,6.75,6.75,0,0,0,5.53,2.52,7.6,7.6,0,0,0,4.05-1.06,7.42,7.42,0,0,0,2.78-3.13l.33.14a10.09,10.09,0,0,1-3.93,5.82,11.82,11.82,0,0,1-7,2.09A12.15,12.15,0,0,1,307.44,34,11.68,11.68,0,0,1,304,25.28Zm12.34-11.35c-1.16,0-2.06.81-2.71,2.43a20.62,20.62,0,0,0-1.06,6.85h6.83a24.33,24.33,0,0,0-.73-7.26C318.19,14.61,317.41,13.93,316.34,13.93Z"/><path class="cls-4" d="M347.61,23.35a3.64,3.64,0,0,1-1-.14,2.29,2.29,0,0,1-.7-.33A2.28,2.28,0,0,0,347,22a2.48,2.48,0,0,0,.4-1.41,2.49,2.49,0,0,0-.75-1.95,3.09,3.09,0,0,0-2.17-.69,3.85,3.85,0,0,0-3.22,1.84,8,8,0,0,0-1.3,4.76v7.25a5.52,5.52,0,0,0,.66,3,6.91,6.91,0,0,0,3,2v.09H329.34v-.09a4.68,4.68,0,0,0,1.84-1.72,9.51,9.51,0,0,0,.37-3.32v-13a8.74,8.74,0,0,0-.42-3.32,5,5,0,0,0-2.07-1.82V13.6H340v7.58a14.44,14.44,0,0,1,2.95-6,5.88,5.88,0,0,1,4.49-2,5,5,0,0,1,3.63,1.37A4.69,4.69,0,0,1,352.46,18a5.42,5.42,0,0,1-1.36,3.86A4.59,4.59,0,0,1,347.61,23.35Z"/><path class="cls-4" d="M379.45,25.23a11.36,11.36,0,0,1-3.7,8.74,14.26,14.26,0,0,1-18.51,0,11.38,11.38,0,0,1-3.69-8.74,11.34,11.34,0,0,1,3.69-8.69,14.26,14.26,0,0,1,18.51,0A11.31,11.31,0,0,1,379.45,25.23Zm-17,0a28,28,0,0,0,1,8.64c.64,1.81,1.65,2.71,3,2.71s2.39-.9,3-2.71,1-4.68,1-8.64a27.48,27.48,0,0,0-1-8.59c-.64-1.81-1.65-2.71-3-2.71s-2.4.9-3,2.71A27.79,27.79,0,0,0,362.49,25.23Z"/><path class="cls-4" d="M156,48.14a5,5,0,0,0,2-.4,10,10,0,0,0,2.31-1.58l.47,15.75h-.14q-2.78-7-6.55-10.66a11.71,11.71,0,0,0-8.27-3.64q-5.84,0-9.34,5.63t-3.5,14.49q0,8.88,4.36,14.3a13.82,13.82,0,0,0,11.26,5.43,14.53,14.53,0,0,0,7.87-2,14.18,14.18,0,0,0,5.17-6.15l.39.13A18.15,18.15,0,0,1,155.11,90a21.1,21.1,0,0,1-12.78,3.77q-10,0-16.38-6.45t-6.38-16.71a23.36,23.36,0,0,1,7.18-17.54,24.52,24.52,0,0,1,17.77-7,28.47,28.47,0,0,1,3.81.26A36.21,36.21,0,0,1,153,47.48a15.22,15.22,0,0,0,1.95.56A5.67,5.67,0,0,0,156,48.14Z"/><path class="cls-4" d="M200.38,90.83a5.39,5.39,0,0,0,.8-.06,3.79,3.79,0,0,0,.72-.2v.13a8.55,8.55,0,0,1-3.44,2.22,12.79,12.79,0,0,1-4.56.83,10.36,10.36,0,0,1-6-1.53,6.27,6.27,0,0,1-2.69-4.36c0-.09,0-.37-.06-.83s-.07-.76-.07-.9a8.86,8.86,0,0,1-3.67,5.46,11.83,11.83,0,0,1-7,2,10.83,10.83,0,0,1-7.09-2.21,7.41,7.41,0,0,1-2.71-6.06A8,8,0,0,1,166,80.71a9.69,9.69,0,0,1,4.11-3.18,27.24,27.24,0,0,1,3.57-1.23q2.06-.55,6.29-1.35l5-.93V67.6a8.24,8.24,0,0,0-1.29-4.9,4.33,4.33,0,0,0-3.74-1.78,4.47,4.47,0,0,0-3.44,1.35A5.2,5.2,0,0,0,175.23,66a4.67,4.67,0,0,0,.83,3,2.84,2.84,0,0,0,2.35,1l.59,0a2.83,2.83,0,0,0,.67-.16,6.83,6.83,0,0,1-2.82,2.91,8.8,8.8,0,0,1-4.27,1,6.63,6.63,0,0,1-4.5-1.55,5.09,5.09,0,0,1-1.79-4q0-3.76,3.84-6.09t10.13-2.32q8.53,0,12.51,2.82t4,8.77v2.22c0,.81,0,2-.07,3.67q-.06,2.72-.06,4.17v2.78c0,2.6.29,4.37.86,5.29A3.14,3.14,0,0,0,200.38,90.83Zm-15.49-8.6.07-7-2.78.66a7.24,7.24,0,0,0-4.57,2.49,8.29,8.29,0,0,0-1.45,5.19,7.12,7.12,0,0,0,1,4A3.24,3.24,0,0,0,180,89.05a4.17,4.17,0,0,0,3.54-1.92A8.34,8.34,0,0,0,184.89,82.23Z"/><path class="cls-4" d="M220.24,88.19A4.61,4.61,0,0,0,224,86.33,12.07,12.07,0,0,0,226.13,81l.79.27q-.85,6.15-3.9,9.36a10.61,10.61,0,0,1-8.08,3.21,10.23,10.23,0,0,1-7.77-2.94c-1.88-2-2.8-4.71-2.75-8.24L204.55,62H201v-.73a20.28,20.28,0,0,0,9.1-4.36,18.58,18.58,0,0,0,5.52-8.08h.67V60.39h9.92L225.86,62h-9.59V82.89a6.47,6.47,0,0,0,1,3.94A3.5,3.5,0,0,0,220.24,88.19Z"/><path class="cls-4" d="M265.11,76.74A16,16,0,0,1,259.92,89a20,20,0,0,1-26,0,16,16,0,0,1-5.2-12.27,15.88,15.88,0,0,1,5.2-12.22,20,20,0,0,1,26,0A15.91,15.91,0,0,1,265.11,76.74Zm-23.82,0q0,8.34,1.35,12.14t4.27,3.81c1.94,0,3.37-1.27,4.27-3.81s1.36-6.58,1.36-12.14-.46-9.55-1.36-12.08-2.33-3.81-4.27-3.81-3.36,1.27-4.27,3.81S241.29,71.22,241.29,76.74Zm3.37-33.17h11.52a25.71,25.71,0,0,1-5.56,7.48,38.65,38.65,0,0,1-8.67,6h-.4a21.28,21.28,0,0,0,2.15-5.79A43.56,43.56,0,0,0,244.66,43.57Z"/><path class="cls-4" d="M266.7,43.57h15.75V85.94A13.25,13.25,0,0,0,283,90.6,6.51,6.51,0,0,0,285.57,93v.13h-18V93a6.5,6.5,0,0,0,2.52-2.42,13.25,13.25,0,0,0,.53-4.66v-35a10.39,10.39,0,0,0-.76-4.63,7,7,0,0,0-3.15-2.58Z"/><path class="cls-4" d="M287.55,60.39h15.36V85.94a13,13,0,0,0,.53,4.66A6.4,6.4,0,0,0,306,93v.13H288V93a6.53,6.53,0,0,0,2.58-2.42,13.25,13.25,0,0,0,.53-4.66V67.73a12,12,0,0,0-.6-4.66,6.93,6.93,0,0,0-2.91-2.55Zm9.27-4a6.57,6.57,0,0,1-4.74-1.82,6.09,6.09,0,0,1-1.88-4.54,6,6,0,0,1,1.88-4.5,6.64,6.64,0,0,1,4.74-1.79,6.88,6.88,0,0,1,4.8,1.79,5.84,5.84,0,0,1,1.95,4.5,6,6,0,0,1-1.95,4.54A6.82,6.82,0,0,1,296.82,56.42Z"/><path class="cls-4" d="M332.43,66.08a5.37,5.37,0,0,0-1.33-3.84,4.86,4.86,0,0,0-3.7-1.39c-2.17,0-3.84,1.22-5,3.67s-1.79,5.77-1.79,10q0,6.54,2.71,10.22a8.78,8.78,0,0,0,7.48,3.67,9.83,9.83,0,0,0,5.43-1.52A10.9,10.9,0,0,0,340,82.49l.39.2A14.06,14.06,0,0,1,335,90.83a16,16,0,0,1-9.76,3,17,17,0,0,1-12.18-4.57,15.55,15.55,0,0,1-4.83-11.84q0-8,5.29-12.81t13.7-4.87A16,16,0,0,1,336.33,62a7.17,7.17,0,0,1,3.44,6.22A5.72,5.72,0,0,1,338,72.63a6.23,6.23,0,0,1-4.47,1.66,6.83,6.83,0,0,1-4-1.1,3.8,3.8,0,0,1-1.79-2.74l.6.13a3.47,3.47,0,0,0,.59.07,3,3,0,0,0,2.55-1.2A5.47,5.47,0,0,0,332.43,66.08Z"/><path class="cls-4" d="M378.56,76.74A16,16,0,0,1,373.36,89a20,20,0,0,1-26,0,16,16,0,0,1-5.19-12.27,15.91,15.91,0,0,1,5.19-12.22,20,20,0,0,1,26,0A15.88,15.88,0,0,1,378.56,76.74Zm-23.83,0q0,8.34,1.36,12.14t4.27,3.81q2.91,0,4.27-3.81T366,76.74q0-8.28-1.35-12.08t-4.27-3.81q-2.92,0-4.27,3.81T354.73,76.74Z"/></g></g></svg>